Coordinates
version=1
nRows=19
nColumns=36
inDegrees=yes

Units are S.I. units (second, meters, Newtons, ...)
If the header above contains a line with 'inDegrees', this indicates whether rotational values are in degrees (yes) or radians (no).

endheader
time	pelvis_tilt	pelvis_list	pelvis_rotation	pelvis_tx	pelvis_ty	pelvis_tz	hip_flexion_r	hip_adduction_r	hip_rotation_r	knee_angle_r	knee_angle_r_beta	ankle_angle_r	subtalar_angle_r	mtp_angle_r	hip_flexion_l	hip_adduction_l	hip_rotation_l	knee_angle_l	knee_angle_l_beta	ankle_angle_l	subtalar_angle_l	mtp_angle_l	lumbar_extension	lumbar_bending	lumbar_rotation	arm_flex_r	arm_add_r	arm_rot_r	elbow_flex_r	pro_sup_r	arm_flex_l	arm_add_l	arm_rot_l	elbow_flex_l	pro_sup_l
      5.10000000	     16.75438431	     -0.69532144	     15.66258592	      0.55935038	      0.86007947	     -0.13932832	     39.23894624	    -11.08395032	     -6.86151637	     16.83541551	      0.29383343	     -9.34218433	     -3.05771080	     -7.49999987	     10.52710405	      5.42803655	     -5.32449433	     49.36411894	      0.86156641	     24.31491972	     -8.92632048	     -7.49999987	    -34.32612695	      2.31601463	     -0.05231514	     55.40188833	      3.10891601	     69.07115148	    117.82035678	     90.89660258	     60.97612673	      0.67009939	     63.88550682	    130.44299578	     74.07996076
      5.11666670	     16.40934172	     -0.75292524	     15.74913379	      0.55542324	      0.86988676	     -0.13678782	     38.89416573	    -10.85965761	     -7.28993154	     16.08715117	      0.28077376	     -9.50262950	     -2.50959177	     -7.49999987	     10.20271680	      5.40927765	     -4.97011482	     47.72954486	      0.83303771	     23.45044359	     -8.64711509	     -7.49999987	    -33.90788562	      2.44314554	     -0.29755350	     55.64987471	      3.87350019	     69.36247409	    117.40881562	     93.41160658	     60.83996324	      0.41873194	     63.20554002	    130.56445813	     76.00442792
      5.13333330	     16.29450991	     -0.91777472	     15.72675083	      0.55716840	      0.87720555	     -0.13774718	     38.58627600	    -10.55806576	     -7.03413705	     16.58311072	      0.28942988	     -8.92890779	     -2.55720936	     -7.49999987	      9.31395974	      5.24236487	     -4.64905448	     45.87500313	      0.80066985	     22.38271702	     -8.48050168	     -7.49999987	    -33.41116351	      2.76518904	     -0.10543573	     55.73378950	      3.94128631	     68.86588104	    117.37506593	     93.30773231	     60.92266190	      0.42542863	     62.61352284	    130.68360599	     75.94644786
      5.15000000	     15.91875249	     -1.22444049	     16.01151751	      0.55814226	      0.88541586	     -0.13845589	     38.61937734	    -10.47198340	     -7.35992337	     17.74250535	      0.30966514	     -8.30680367	     -3.24028109	     -7.49999987	      8.75787288	      4.95019815	     -4.52402816	     43.76378505	      0.76382214	     21.31684955	     -7.86103739	     -7.49999987	    -32.74241268	      3.43826146	     -0.09464438	     55.62487151	      4.04458848	     68.94632531	    117.85292233	     93.25305486	     60.87524688	      0.48795333	     62.47150557	    130.68288854	     75.91645684
      5.16666670	     15.55497776	     -1.06680177	     16.40957914	      0.55320531	      0.89314927	     -0.13649867	     38.52592802	    -10.73042426	     -7.31005360	     18.41347492	      0.32137576	     -7.34151148	     -3.26201392	     -7.49999987	      7.69769187	      5.21210746	     -4.55209896	     40.35610728	      0.70434695	     18.37712505	     -9.01830883	     -7.49999987	    -32.39596680	      3.29418770	     -0.53233644	     55.52737346	      4.28066714	     69.04891338	    118.48013974	     93.31785011	     60.93262189	      0.38989735	     62.41593445	    130.90822255	     75.89102945
      5.18333330	     15.19294918	     -1.62341565	     16.52742476	      0.56343048	      0.89742581	     -0.13565604	     38.50611496	    -10.21055034	     -7.35283121	     18.99963198	      0.33160613	     -6.58563027	     -3.17272942	     -7.49999987	      5.95058679	      4.57413048	     -4.59041000	     36.59511331	      0.63870522	     16.69093414	     -9.30462954	     -7.49999987	    -31.47116515	      3.71236493	     -0.48629197	     54.80590140	      4.61699646	     69.15691772	    118.18189253	     93.34613356	     60.36834210	      0.25429528	     62.38669191	    130.86223813	     75.80829608
      5.20000000	     14.84821778	     -2.49668694	     16.54363275	      0.56154744	      0.90341905	     -0.13625217	     38.92891798	     -9.35791239	     -7.45554953	     19.70711747	      0.34395409	     -6.85297368	     -3.13653548	     -7.49999987	      5.01211946	      3.88195169	     -4.39166116	     33.83353449	      0.59050657	     15.32346557	     -9.58733538	     -7.49999987	    -30.59658564	      4.43028938	     -0.23218883	     54.29249469	      4.47072247	     69.25225302	    117.95522567	     93.35032291	     59.71592433	      0.04168130	     62.29127977	    130.90365855	     75.72412100
      5.21666670	     14.38514250	     -2.78890673	     16.74964960	      0.56113943	      0.90696660	     -0.13650745	     39.05750980	     -9.13440541	     -7.53203460	     19.73434972	      0.34442938	     -6.82213722	     -3.32645931	     -7.49999987	      3.85220833	      3.88948152	     -4.37183884	     30.28872305	      0.52863794	     13.23086302	     -9.68473060	     -7.49999987	    -29.41614830	      4.65854901	     -0.44092675	     53.80167744	      4.59403226	     68.97971616	    117.89000006	     93.22102739	     59.34089074	      0.06025050	     62.14962015	    131.29422097	     75.25437704
      5.23333330	     13.70250842	     -3.02296374	     17.09241130	      0.55977988	      0.91055002	     -0.13705507	     39.29276954	     -9.15781385	     -7.16253008	     19.64423532	      0.34285659	     -7.16974442	     -3.88245441	     -7.49999987	      2.67425123	      4.11641106	     -4.01945934	     26.24605276	      0.45808004	     11.50267678	     -9.14752916	     -7.49999987	    -28.01138337	      4.75008382	     -0.79081223	     53.66224721	      4.63515196	     68.71492926	    118.25265504	     93.18614559	     59.86739952	      0.33730191	     62.26790147	    131.23189618	     75.13293336
      5.25000000	     12.88852378	     -3.06473396	     17.18370770	      0.56541560	      0.91452993	     -0.13928183	     39.35445370	     -9.22079642	     -6.88835995	     19.36444683	      0.33797335	     -7.40863705	     -4.56174034	     -7.49999987	      1.44129994	      4.53401507	     -3.94122630	     22.55565722	      0.39367048	      9.92297044	     -9.13343351	     -7.49999987	    -26.37196031	      4.79863492	     -1.09368531	     53.06874429	      5.22655170	     69.32410676	    118.65360504	     93.22311553	     59.57454859	      0.48091786	     62.38668467	    131.66984023	     74.82613660
      5.26666670	     12.11348254	     -3.38895293	     17.06757271	      0.56618649	      0.92327117	     -0.14037463	     39.22381849	     -8.96966843	     -6.55335444	     18.88260849	      0.32956369	     -7.91957369	     -5.06501057	     -7.49999987	      0.74785626	      4.55202444	     -4.01518119	     19.88270768	      0.34701871	      8.11285193	     -8.65920457	     -7.49999987	    -24.95450467	      5.11107500	     -1.12951515	     52.20945611	      5.38852676	     70.03115771	    118.98098442	     93.22271808	     58.90636584	      0.36259662	     62.40333004	    131.94911178	     74.72777442
      5.28333330	     11.63243504	     -3.51619160	     17.04477606	      0.56696171	      0.92778319	     -0.14025906	     38.46031456	     -8.56580831	     -5.91910689	     17.63885156	      0.30785604	     -8.55501204	     -6.33990725	     -7.49999987	      0.03113861	      4.59327269	     -4.07706769	     17.57342289	      0.30671409	      6.48605631	     -8.94435694	     -7.49999987	    -23.89941322	      5.35083055	     -1.29087196	     51.76478602	      5.17663349	     69.67918353	    118.43913983	     93.09699005	     58.20797455	     -0.18317774	     61.89215410	    132.25640919	     74.22596596
      5.30000000	     11.21464061	     -3.94378345	     17.03410893	      0.57200029	      0.92828757	     -0.13735679	     38.12708771	     -7.90830035	     -5.09530402	     17.84053616	      0.31137610	     -8.54842732	     -8.02306588	     -7.49999987	     -0.21357321	      4.08408052	     -4.26620551	     16.25254056	      0.28366034	      5.37763754	     -8.64282205	     -7.49999987	    -22.87835449	      5.68373584	     -1.07289634	     51.56253494	      4.69593301	     69.13540159	    118.06186066	     92.89837868	     57.35985739	     -0.03101359	     61.99912925	    132.60443381	     73.76467166
      5.31666670	     10.83504069	     -4.46349021	     17.05826904	      0.57678466	      0.93170034	     -0.14025286	     37.55023438	     -7.28855902	     -4.93199205	     18.11403990	      0.31614964	     -8.39989085	     -9.14166873	     -7.49999987	     -1.06404100	      3.64979486	     -4.38555804	     14.16669823	      0.24725553	      4.70739805	     -8.14620811	     -7.49999987	    -21.66911762	      6.16976679	     -1.19147887	     51.07432626	      4.27992856	     68.91081049	    118.03185807	     92.47161770	     56.52453938	      0.24081783	     62.36545305	    132.95848309	     73.38785218
      5.33333330	     10.56149521	     -4.86631997	     17.03686540	      0.57552345	      0.93223279	     -0.14071926	     37.11241757	     -6.51544044	     -4.16060982	     18.09827059	      0.31587441	     -8.16612822	     -9.20795861	     -7.49999987	     -1.48252762	      3.37057950	     -4.56322964	     12.83564708	      0.22402430	      4.46873181	     -7.48861768	     -7.49999987	    -20.63511808	      6.42614604	     -1.26251985	     50.74008309	      4.05160812	     68.04645207	    117.86731646	     92.32343970	     56.62858540	      0.61807295	     62.51528681	    133.18700648	     73.18962739
      5.35000000	     10.56751908	     -4.96884546	     17.22741752	      0.57500186	      0.93589344	     -0.14067854	     36.43240118	     -6.21389720	     -3.66992252	     18.28605050	      0.31915179	     -7.64334255	     -9.30305526	     -7.49999987	     -2.64658468	      3.23933919	     -4.62763931	     10.95859318	      0.19126353	      4.06409756	     -6.61747098	     -7.49999987	    -20.00781087	      6.41456566	     -1.22835083	     50.49712689	      3.68122369	     67.03910627	    117.56538486	     91.94028570	     57.37211236	      1.07382758	     62.96853624	    132.78188229	     72.55252030
      5.36666670	     10.25013172	     -5.09341765	     17.39057956	      0.57481548	      0.93580232	     -0.14089526	     35.99731724	     -6.10794239	     -3.38105648	     17.96669966	      0.31357806	     -7.08990272	     -8.10075359	     -7.49999987	     -3.67995659	      3.33328136	     -5.04426317	      8.69023205	      0.15167316	      3.44032727	     -6.21432820	     -7.49999987	    -19.20187864	      6.34992019	     -1.33283386	     50.39074298	      3.68810093	     66.58519281	    117.43181435	     90.58502698	     58.11828620	      1.30674575	     63.60310515	    132.50741586	     69.56742195
      5.38333330	     10.05222707	     -4.86576017	     17.66205673	      0.57530926	      0.93536490	     -0.14036778	     34.78236410	     -6.32675733	     -3.53925524	     16.80940897	      0.29337953	     -5.83811635	     -6.45499370	     -7.49999987	     -4.80748418	      3.73099086	     -5.24224133	      6.44972188	      0.11256888	      2.75128742	     -5.54985509	     -7.49999987	    -18.54237359	      5.98315911	     -1.68380756	     50.28533235	      3.75949191	     65.91862194	    116.84655374	     90.52348969	     58.86120876	      1.30627417	     63.74839653	    132.24667215	     69.48605564
      5.40000000	      9.83384638	     -4.64611154	     17.51736556	      0.57524247	      0.93221880	     -0.14013289	     33.89380325	     -6.45313870	     -4.26879842	     16.04062494	      0.27996172	     -4.52432914	     -4.79000481	     -7.49999987	     -5.47654928	      4.17427410	     -5.67175393	      5.15585797	      0.08998670	      3.17212495	     -4.75347153	     -7.49999987	    -18.08220512	      5.54341682	     -1.72086088	     50.57185302	      3.85450404	     66.20284269	    116.75819711	     89.18161963	     59.60904879	      1.39440826	     63.86102917	    132.07343925	     68.82028794
